<?xml version="1.0" encoding="UTF-8"?>
<svg version="1.1" xmlns="http://www.w3.org/2000/svg" width="100" height="100">
<path d="M0 0 C0.67194397 -0.0065712 1.34388794 -0.0131424 2.03619385 -0.01991272 C4.25883096 -0.03961403 6.48140054 -0.05130213 8.70410156 -0.0612793 C9.46489265 -0.06535482 10.22568375 -0.06943035 11.00952911 -0.07362938 C15.03759997 -0.09447818 19.06563689 -0.10878414 23.09375 -0.11816406 C27.24429036 -0.12921676 31.39429287 -0.16360633 35.5446434 -0.20333576 C38.74465905 -0.22954327 41.94454743 -0.2378596 45.14466095 -0.24144554 C46.67400997 -0.24630207 48.20335366 -0.25788946 49.73259735 -0.27648354 C65.33752375 -0.45440674 65.33752375 -0.45440674 72.27050781 5.95825195 C72.728125 6.52543945 73.18574219 7.09262695 73.65722656 7.67700195 C74.12773438 8.24418945 74.59824219 8.81137695 75.08300781 9.39575195 C78.08595864 13.63521194 78.60512287 16.69631804 78.65112305 21.92993164 C78.65944656 22.60041534 78.66777008 23.27089905 78.67634583 23.96170044 C78.70040212 26.17415209 78.70921362 28.38630845 78.71582031 30.59887695 C78.72479201 32.14341314 78.73391395 33.68794846 78.74317932 35.23248291 C78.75966141 38.47052112 78.76736763 41.70845605 78.77026367 44.9465332 C78.77563801 49.08030806 78.81328069 53.21310131 78.85900784 57.34659958 C78.88886954 60.53810089 78.89598923 63.7293688 78.89698982 66.92099762 C78.90117633 68.44394665 78.9135473 69.9668974 78.93450737 71.48970795 C79.05993607 81.39308189 78.29811276 87.84958455 71.43066406 95.2355957 C70.86605469 95.69063477 70.30144531 96.14567383 69.71972656 96.61450195 C69.14996094 97.08758789 68.58019531 97.56067383 67.99316406 98.0480957 C64.38128922 100.52163084 60.92582975 100.31970147 56.68945312 100.35400391 C56.01750916 100.3605751 55.34556519 100.3671463 54.65325928 100.37391663 C52.43062217 100.39361794 50.20805259 100.40530604 47.98535156 100.4152832 C46.84416492 100.42139649 46.84416492 100.42139649 45.67992401 100.42763329 C41.65185316 100.44848209 37.62381624 100.46278805 33.59570312 100.47216797 C29.44516277 100.48322066 25.29516026 100.51761023 21.14480972 100.55733967 C17.94479407 100.58354718 14.74490569 100.59186351 11.54479218 100.59544945 C10.01544316 100.60030598 8.48609947 100.61189336 6.95685577 100.63048744 C-8.64807062 100.80841064 -8.64807062 100.80841064 -15.58105469 94.39575195 C-16.26748047 93.5449707 -16.26748047 93.5449707 -16.96777344 92.67700195 C-17.67353516 91.8262207 -17.67353516 91.8262207 -18.39355469 90.95825195 C-21.39650551 86.71879196 -21.91566975 83.65768586 -21.96166992 78.42407227 C-21.96999344 77.75358856 -21.97831696 77.08310486 -21.9868927 76.39230347 C-22.01094899 74.17985182 -22.0197605 71.96769546 -22.02636719 69.75512695 C-22.03533888 68.21059077 -22.04446083 66.66605545 -22.0537262 65.121521 C-22.07020828 61.88348279 -22.07791451 58.64554785 -22.08081055 55.4074707 C-22.08618488 51.27369584 -22.12382756 47.1409026 -22.16955471 43.00740433 C-22.19941642 39.81590302 -22.20653611 36.62463511 -22.2075367 33.43300629 C-22.2117232 31.91005725 -22.22409417 30.38710651 -22.24505424 28.86429596 C-22.37048295 18.96092201 -21.60865964 12.50441936 -14.74121094 5.1184082 C-14.17660156 4.66336914 -13.61199219 4.20833008 -13.03027344 3.73950195 C-12.175625 3.02987305 -12.175625 3.02987305 -11.30371094 2.3059082 C-7.69183609 -0.16762694 -4.23637663 0.03430243 0 0 Z " fill="#F89572" transform="translate(21.6552734375,-0.177001953125)"/>
<path d="M0 0 C1.8871875 0.0309375 1.8871875 0.0309375 3.8125 0.0625 C3.8125 4.6825 3.8125 9.3025 3.8125 14.0625 C2.61625 14.289375 1.42 14.51625 0.1875 14.75 C-4.87060731 16.01452683 -8.53026662 18.37020276 -11.33203125 22.921875 C-13.32239708 27.9023338 -12.77473112 33.42443426 -11 38.375 C-7.88509397 42.99365377 -5.35994828 45.98922685 0.125 47.375 C1.9503125 47.7153125 1.9503125 47.7153125 3.8125 48.0625 C3.8125 52.6825 3.8125 57.3025 3.8125 62.0625 C-5.59107611 62.0625 -11.44883526 59.49912855 -18.328125 53.12890625 C-25.70254345 44.93338659 -27.61358141 37.45754495 -27.53515625 26.6796875 C-26.79580894 18.98715256 -22.65444293 12.40795531 -17.1875 7.0625 C-6.67431633 -0.10941502 -6.67431633 -0.10941502 0 0 Z " fill="#FEFBFA" transform="translate(69.1875,27.9375)"/>
<path d="M0 0 C4.95 0 9.9 0 15 0 C15 8.49812382 11.46649346 15.74729152 6.10546875 22.32421875 C-0.29751697 28.33598335 -7.29525264 31 -16 31 C-16 26.38 -16 21.76 -16 17 C-14.618125 16.62875 -13.23625 16.2575 -11.8125 15.875 C-7.04058732 14.26185342 -4.7153217 12.36097122 -2 8 C-1.08373821 5.32355108 -0.52977032 2.7933344 0 0 Z " fill="#FEFBF9" transform="translate(43,10)"/>
</svg>
